<?xml version="1.0" standalone="no"?><!DOCTYPE svg PUBLIC "-//W3C//DTD SVG 1.1//EN" "http://www.w3.org/Graphics/SVG/1.1/DTD/svg11.dtd"><svg t="1701400977576" class="icon" viewBox="0 0 1024 1024" version="1.1" xmlns="http://www.w3.org/2000/svg" p-id="3259" xmlns:xlink="http://www.w3.org/1999/xlink" width="200" height="200"><path d="M871.887863 0C879.327179 1.750427 877.226667 12.16547 878.189402 16.804103 897.094017 110.276923 909.697094 214.42735 926.501197 312.97641 935.253333 364.088889 945.318291 416.339145 953.807863 468.414359 962.56 523.027692 975.075556 576.503248 972.712479 632.254359 962.997607 863.573333 831.803077 979.101538 624.02735 1016.648205 521.523586 1035.670143 415.598452 1017.021352 325.75453 964.135385 248.718455 919.083629 189.885385 848.483942 159.463932 764.586667 142.484786 717.675214 134.607863 666.650256 125.855726 613.349744 100.649573 460.099829 73.342906 293.634188 48.136752 142.834872 322.428718 94.69812 598.38359 48.486838 871.887863 0L871.887863 0ZM785.766838 102.925128C792.681026 145.110427 798.982564 189.221197 806.771966 226.855385 804.671453 226.855385 804.233846 225.192479 802.57094 224.754872L802.57094 220.553846C787.604786 184.670085 771.85094 145.810598 758.810256 111.327179 754.259145 99.511795 751.37094 85.070769 742.006154 75.618462 679.953504 87.521368 613.962393 94.610598 555.060513 109.226667 574.665299 214.252308 596.895726 352.01094 616.32547 464.213333 623.502222 506.573675 639.256068 565.12547 631.02906 594.445128 613.524786 656.322735 508.499145 666.387692 479.792137 604.947692 465.26359 573.44 465.788718 528.804103 458.787009 489.419487 437.344274 369.165128 417.389402 251.361368 397.522051 134.432821 314.289231 146.423248 235.782564 163.139829 151.762051 174.342564 178.018462 328.730256 200.161368 491.782564 227.380513 634.354872 240.747082 699.765131 275.475523 758.87737 326.104615 802.395897 379.641137 848.451887 446.76574 875.744309 517.251282 880.114872 637.330598 888.166838 724.064274 846.244103 784.01641 789.792821 833.553504 743.231453 878.977094 678.028034 884.841026 590.244103 888.95453 528.979145 874.86359 481.630085 865.93641 428.504615 847.119316 316.477265 827.689573 202.349402 809.222564 92.422564 807.559658 82.270085 806.684444 68.879316 800.470427 65.115897 797.407179 68.354188 789.705299 66.953846 783.666325 67.21641 777.277265 77.281368 783.316239 90.672137 785.766838 102.925128L785.766838 102.925128ZM346.759658 186.945641C354.111453 189.921368 341.245812 192.897094 340.45812 193.247179 312.013675 207.425641 270.441026 222.304274 241.734017 237.007863 242.959316 313.151453 238.05812 383.168547 239.633504 459.662222 224.579829 379.49265 213.377094 295.734701 199.723761 213.902222 247.772991 204.18735 298.010256 196.310427 346.759658 186.945641L346.759658 186.945641ZM407.67453 422.203077C420.518739 457.0063 430.357118 492.846112 437.081709 529.329231 448.547009 585.342906 450.384957 636.542906 491.695043 661.661538 516.551111 676.802735 561.712137 679.165812 607.223248 674.264615 575.890598 695.269744 513.575385 700.521026 476.991453 680.566154 405.924103 642.231795 418.439658 523.115214 407.67453 422.203077L407.67453 422.203077Z" fill="#000000" p-id="3260"></path></svg>